Coordinates
version=1
nRows=6
nColumns=36
inDegrees=yes

Units are S.I. units (second, meters, Newtons, ...)
If the header above contains a line with 'inDegrees', this indicates whether rotational values are in degrees (yes) or radians (no).

endheader
time	pelvis_tilt	pelvis_list	pelvis_rotation	pelvis_tx	pelvis_ty	pelvis_tz	hip_flexion_r	hip_adduction_r	hip_rotation_r	knee_angle_r	knee_angle_r_beta	ankle_angle_r	subtalar_angle_r	mtp_angle_r	hip_flexion_l	hip_adduction_l	hip_rotation_l	knee_angle_l	knee_angle_l_beta	ankle_angle_l	subtalar_angle_l	mtp_angle_l	lumbar_extension	lumbar_bending	lumbar_rotation	arm_flex_r	arm_add_r	arm_rot_r	elbow_flex_r	pro_sup_r	arm_flex_l	arm_add_l	arm_rot_l	elbow_flex_l	pro_sup_l
      0.74000000	     -9.07372379	      2.29461016	     -0.00384779	     -0.72898140	      1.28350268	     -0.56727855	     12.42248534	     -5.32956082	    -12.02752676	     47.37584786	      0.82686453	     -5.69599593	    -12.71367652	     -5.60708478	     43.95719828	     -6.07097008	     -5.18322368	     55.44539417	      0.96770468	    -18.53172196	    -16.79031065	     -5.60708478	    -19.25391795	     -2.17233147	     -4.05803767	     46.15997575	    -15.06763625	     -0.16674238	    108.12976479	    100.23695292	      2.82241074	    -19.94313429	      2.35254236	     83.96103984	    107.60368333
      0.75000000	     -8.61175070	      2.45546935	     -0.54887729	     -0.71951167	      1.28920085	     -0.56711199	     14.03782934	     -6.14799171	    -12.21309648	     50.27822127	      0.87752050	     -4.16241811	    -14.94088862	     -5.63808043	     43.29795806	     -6.42750929	     -5.55749203	     52.89124728	      0.92312641	    -18.86541589	    -15.71973006	     -5.63808043	    -20.79492224	     -2.59276959	     -4.13255176	     45.69688933	    -15.23954454	      0.51354868	    108.29131753	    100.44903516	      2.81575266	    -19.73272113	      2.55495071	     83.78447278	    108.00929274
      0.76000000	     -8.34899662	      2.47762441	     -1.12483928	     -0.71064165	      1.29351104	     -0.56701882	     16.04661061	     -6.74698798	    -12.03261360	     52.92411173	      0.92370000	     -3.32567027	    -16.05314290	     -5.66009188	     42.94976890	     -6.93911082	     -5.89878803	     50.49661161	      0.88133213	    -19.36235350	    -14.91145184	     -5.66009188	    -22.23134464	     -2.84504193	     -4.10946538	     45.28845900	    -15.74833100	      1.38016453	    108.32187637	    100.61577540	      2.96755136	    -19.46562062	      2.92945858	     83.74704337	    108.32101335
      0.77000000	     -8.40599295	      2.32359088	     -1.61909544	     -0.70243584	      1.29607214	     -0.56719481	     18.51263537	     -7.11008601	    -11.74402942	     55.28163793	      0.96484660	     -2.78810852	    -15.99349006	     -5.67961567	     43.10803407	     -7.54158881	     -6.02741702	     48.30230845	      0.84303432	    -19.97160953	    -14.20597309	     -5.67961567	    -23.40258656	     -2.91712806	     -4.04942066	     44.90922084	    -16.46659061	      2.17953084	    108.17143381	    100.76938356	      3.25178199	    -19.20419658	      3.34490941	     83.89251581	    108.61937735
      0.78000000	     -8.66547117	      2.07180667	     -2.13519585	     -0.69441692	      1.29714446	     -0.56728139	     21.21930093	     -7.30564887	    -11.46137843	     57.26011762	      0.99937758	     -2.01276939	    -15.09311983	     -5.69769780	     43.53400047	     -8.32707084	     -6.21824656	     46.19670065	      0.80628453	    -20.71983442	    -13.46928493	     -5.69769780	    -24.34929506	     -2.94263146	     -3.87797923	     44.51448849	    -17.29708660	      2.86071040	    107.84623987	    100.90194935	      3.55660793	    -18.94001737	      3.73192178	     84.20230671	    108.92338923
      0.79000000	     -9.00464007	      1.88694196	     -2.74443164	     -0.68644999	      1.29701000	     -0.56717702	     24.05713919	     -7.46868506	    -11.02164660	     58.83933439	      1.02694011	     -1.01461846	    -13.59844876	     -5.71420578	     43.98045929	     -9.15838407	     -6.54341077	     44.06616936	      0.76909974	    -21.59433991	    -12.60989521	     -5.71420578	    -25.17349004	     -3.09472481	     -3.64425544	     44.15330828	    -18.30710125	      3.65379499	    107.33343427	    101.02119401	      3.88987238	    -18.75939636	      4.09530526	     84.66094069	    109.23648640
